<mxfile host="app.diagrams.net" agent="Mozilla/5.0 (X11; Ubuntu; Linux x86_64; rv:130.0) Gecko/20100101 Firefox/130.0" version="24.7.16">
  <diagram name="Page-1" id="zC7TiCwEvtzbdXVQnTLh">
    <mxGraphModel dx="1456" dy="689" grid="1" gridSize="10" guides="1" tooltips="1" connect="1" arrows="1" fold="1" page="1" pageScale="1" pageWidth="850" pageHeight="1100" math="0" shadow="0">
      <root>
        <mxCell id="0" />
        <mxCell id="1" parent="0" />
        <mxCell id="ERYkEcELDKVZfNgPjOHx-17" value="" style="rounded=0;whiteSpace=wrap;html=1;fillColor=#E9E3FF;" vertex="1" parent="1">
          <mxGeometry x="190" y="120" width="540" height="520" as="geometry" />
        </mxCell>
        <mxCell id="ERYkEcELDKVZfNgPjOHx-3" value="&lt;div&gt;Miner app&lt;br&gt;&lt;/div&gt;" style="rounded=1;whiteSpace=wrap;html=1;" vertex="1" parent="1">
          <mxGeometry x="310" y="20" width="120" height="60" as="geometry" />
        </mxCell>
        <mxCell id="ERYkEcELDKVZfNgPjOHx-11" value="" style="endArrow=classic;html=1;rounded=0;entryX=0.327;entryY=0.024;entryDx=0;entryDy=0;entryPerimeter=0;exitX=0.25;exitY=1;exitDx=0;exitDy=0;" edge="1" parent="1" source="ERYkEcELDKVZfNgPjOHx-3" target="ERYkEcELDKVZfNgPjOHx-27">
          <mxGeometry relative="1" as="geometry">
            <mxPoint x="340" y="100" as="sourcePoint" />
            <mxPoint x="347.4399999999998" y="172.31999999999994" as="targetPoint" />
          </mxGeometry>
        </mxCell>
        <mxCell id="ERYkEcELDKVZfNgPjOHx-12" value="&lt;div&gt;share&lt;/div&gt;" style="edgeLabel;resizable=0;html=1;;align=center;verticalAlign=middle;" connectable="0" vertex="1" parent="ERYkEcELDKVZfNgPjOHx-11">
          <mxGeometry relative="1" as="geometry" />
        </mxCell>
        <mxCell id="ERYkEcELDKVZfNgPjOHx-13" value="" style="endArrow=classic;html=1;rounded=0;exitX=0.609;exitY=0.038;exitDx=0;exitDy=0;entryX=0.75;entryY=1;entryDx=0;entryDy=0;exitPerimeter=0;" edge="1" parent="1" source="ERYkEcELDKVZfNgPjOHx-27" target="ERYkEcELDKVZfNgPjOHx-3">
          <mxGeometry relative="1" as="geometry">
            <mxPoint x="384.9999999999998" y="170" as="sourcePoint" />
            <mxPoint x="570" y="170" as="targetPoint" />
          </mxGeometry>
        </mxCell>
        <mxCell id="ERYkEcELDKVZfNgPjOHx-14" value="status" style="edgeLabel;resizable=0;html=1;;align=center;verticalAlign=middle;" connectable="0" vertex="1" parent="ERYkEcELDKVZfNgPjOHx-13">
          <mxGeometry relative="1" as="geometry" />
        </mxCell>
        <mxCell id="ERYkEcELDKVZfNgPjOHx-18" value="&lt;div&gt;Block process &lt;br&gt;&lt;/div&gt;&lt;div&gt;service&lt;/div&gt;&lt;div&gt;(unlocker)&lt;br&gt;&lt;/div&gt;" style="shape=hexagon;perimeter=hexagonPerimeter2;whiteSpace=wrap;html=1;fixedSize=1;" vertex="1" parent="1">
          <mxGeometry x="540" y="490" width="120" height="80" as="geometry" />
        </mxCell>
        <mxCell id="ERYkEcELDKVZfNgPjOHx-19" value="&lt;div&gt;Payment&amp;nbsp;&lt;/div&gt;&lt;div&gt;service&lt;/div&gt;" style="shape=hexagon;perimeter=hexagonPerimeter2;whiteSpace=wrap;html=1;fixedSize=1;" vertex="1" parent="1">
          <mxGeometry x="250" y="490" width="120" height="80" as="geometry" />
        </mxCell>
        <mxCell id="ERYkEcELDKVZfNgPjOHx-20" value="&lt;div&gt;API &lt;br&gt;&lt;/div&gt;&lt;div&gt;service&lt;/div&gt;" style="shape=hexagon;perimeter=hexagonPerimeter2;whiteSpace=wrap;html=1;fixedSize=1;" vertex="1" parent="1">
          <mxGeometry x="390" y="490" width="120" height="80" as="geometry" />
        </mxCell>
        <mxCell id="ERYkEcELDKVZfNgPjOHx-21" value="Coin pool" style="text;html=1;align=center;verticalAlign=middle;whiteSpace=wrap;rounded=0;" vertex="1" parent="1">
          <mxGeometry x="200" y="610" width="60" height="30" as="geometry" />
        </mxCell>
        <mxCell id="ERYkEcELDKVZfNgPjOHx-29" value="&lt;div&gt;Share checker&lt;/div&gt;&lt;div&gt;service&lt;br&gt;&lt;/div&gt;" style="shape=hexagon;perimeter=hexagonPerimeter2;whiteSpace=wrap;html=1;fixedSize=1;" vertex="1" parent="1">
          <mxGeometry x="390" y="330" width="120" height="80" as="geometry" />
        </mxCell>
        <mxCell id="ERYkEcELDKVZfNgPjOHx-28" value="&lt;div&gt;Share checker&lt;/div&gt;&lt;div&gt;service&lt;br&gt;&lt;/div&gt;" style="shape=hexagon;perimeter=hexagonPerimeter2;whiteSpace=wrap;html=1;fixedSize=1;" vertex="1" parent="1">
          <mxGeometry x="320" y="320" width="120" height="80" as="geometry" />
        </mxCell>
        <mxCell id="ERYkEcELDKVZfNgPjOHx-26" value="&lt;div&gt;Share checker&lt;/div&gt;&lt;div&gt;service&lt;br&gt;&lt;/div&gt;" style="shape=hexagon;perimeter=hexagonPerimeter2;whiteSpace=wrap;html=1;fixedSize=1;" vertex="1" parent="1">
          <mxGeometry x="250" y="310" width="120" height="80" as="geometry" />
        </mxCell>
        <mxCell id="ERYkEcELDKVZfNgPjOHx-27" value="&lt;div&gt;Share&lt;/div&gt;&lt;div&gt;load balancer&lt;br&gt;&lt;/div&gt;" style="shape=trapezoid;perimeter=trapezoidPerimeter;whiteSpace=wrap;html=1;fixedSize=1;" vertex="1" parent="1">
          <mxGeometry x="310" y="180" width="120" height="60" as="geometry" />
        </mxCell>
        <mxCell id="ERYkEcELDKVZfNgPjOHx-30" value="" style="endArrow=classic;html=1;rounded=0;exitX=0.75;exitY=1;exitDx=0;exitDy=0;entryX=0.5;entryY=0;entryDx=0;entryDy=0;" edge="1" parent="1" source="ERYkEcELDKVZfNgPjOHx-27" target="ERYkEcELDKVZfNgPjOHx-29">
          <mxGeometry width="50" height="50" relative="1" as="geometry">
            <mxPoint x="480" y="360" as="sourcePoint" />
            <mxPoint x="530" y="310" as="targetPoint" />
          </mxGeometry>
        </mxCell>
        <mxCell id="ERYkEcELDKVZfNgPjOHx-31" value="" style="endArrow=classic;html=1;rounded=0;exitX=0.5;exitY=1;exitDx=0;exitDy=0;entryX=0.5;entryY=0;entryDx=0;entryDy=0;" edge="1" parent="1" source="ERYkEcELDKVZfNgPjOHx-27" target="ERYkEcELDKVZfNgPjOHx-28">
          <mxGeometry width="50" height="50" relative="1" as="geometry">
            <mxPoint x="480" y="360" as="sourcePoint" />
            <mxPoint x="530" y="310" as="targetPoint" />
          </mxGeometry>
        </mxCell>
        <mxCell id="ERYkEcELDKVZfNgPjOHx-32" value="" style="endArrow=classic;html=1;rounded=0;exitX=0.25;exitY=1;exitDx=0;exitDy=0;entryX=0.5;entryY=0;entryDx=0;entryDy=0;" edge="1" parent="1" source="ERYkEcELDKVZfNgPjOHx-27" target="ERYkEcELDKVZfNgPjOHx-26">
          <mxGeometry width="50" height="50" relative="1" as="geometry">
            <mxPoint x="480" y="360" as="sourcePoint" />
            <mxPoint x="530" y="310" as="targetPoint" />
          </mxGeometry>
        </mxCell>
      </root>
    </mxGraphModel>
  </diagram>
</mxfile>
